<svg width="444" height="444" viewBox="0 0 444 444" fill="none" xmlns="http://www.w3.org/2000/svg">
<rect width="444" height="444" fill="#005F6A"/>
<path d="M46.4531 338.203C46.4531 334.516 46.875 331.188 47.7188 328.219C48.5938 325.25 49.875 322.719 51.5625 320.625C53.2812 318.531 55.4219 316.922 57.9844 315.797C60.5469 314.672 63.5312 314.109 66.9375 314.109C67.9688 314.109 69.0938 314.156 70.3125 314.25C71.5625 314.312 72.8281 314.438 74.1094 314.625C75.4219 314.812 76.7344 315.078 78.0469 315.422C79.3594 315.734 80.625 316.156 81.8438 316.688C81.9375 317.594 81.9219 318.641 81.7969 319.828C81.7031 321.016 81.5469 322.219 81.3281 323.438C81.1406 324.656 80.9375 325.812 80.7188 326.906C80.5 327.969 80.3125 328.812 80.1562 329.438C79.25 329.438 78.4844 329.438 77.8594 329.438C77.2344 329.406 76.4844 329.328 75.6094 329.203L74.7656 321C73.8906 320.594 72.9688 320.266 72 320.016C71.0312 319.766 70.1094 319.594 69.2344 319.5C68.3594 319.375 67.5781 319.297 66.8906 319.266C66.2031 319.234 65.7031 319.219 65.3906 319.219C63.7031 319.219 62.1875 319.531 60.8438 320.156C59.5312 320.75 58.4219 321.766 57.5156 323.203C56.6094 324.609 55.9219 326.484 55.4531 328.828C54.9844 331.141 54.75 334 54.75 337.406C54.75 340.75 54.9844 343.547 55.4531 345.797C55.9531 348.047 56.75 349.859 57.8438 351.234C58.9375 352.578 60.3906 353.547 62.2031 354.141C64.0156 354.734 66.2656 355.031 68.9531 355.031C70.3594 355.031 71.75 354.875 73.125 354.562C74.5312 354.219 75.7969 353.859 76.9219 353.484C78.0469 353.078 78.9688 352.703 79.6875 352.359C80.4062 352.016 80.8125 351.828 80.9062 351.797L82.875 356.016C82.625 356.203 82.0469 356.594 81.1406 357.188C80.2344 357.75 79.0625 358.344 77.625 358.969C76.2188 359.594 74.5625 360.141 72.6562 360.609C70.7812 361.109 68.7344 361.359 66.5156 361.359C64.7969 361.359 63.0938 361.25 61.4062 361.031C59.75 360.812 58.1719 360.406 56.6719 359.812C55.2031 359.219 53.8438 358.391 52.5938 357.328C51.3438 356.266 50.2656 354.875 49.3594 353.156C48.4531 351.438 47.7344 349.359 47.2031 346.922C46.7031 344.453 46.4531 341.547 46.4531 338.203ZM89.5156 356.344C90.4219 356.031 91.5 355.75 92.75 355.5C94.0312 355.25 95.3906 355.016 96.8281 354.797V291.094H88.7188L88.2031 287.062C88.5781 286.906 89.2031 286.703 90.0781 286.453C90.9531 286.172 91.9219 285.906 92.9844 285.656C94.0469 285.375 95.125 285.141 96.2188 284.953C97.3438 284.734 98.3594 284.625 99.2656 284.625C100.578 284.625 101.594 284.797 102.312 285.141C103.031 285.484 103.562 285.922 103.906 286.453C104.281 286.953 104.5 287.5 104.562 288.094C104.656 288.688 104.703 289.219 104.703 289.688V319.828C107.578 317.766 110.297 316.297 112.859 315.422C115.453 314.547 118.047 314.109 120.641 314.109C123.109 314.109 125.172 314.328 126.828 314.766C128.516 315.203 129.859 315.984 130.859 317.109C131.891 318.234 132.625 319.781 133.062 321.75C133.5 323.688 133.719 326.172 133.719 329.203V354.984L141.031 356.344C141.188 356.844 141.203 357.453 141.078 358.172C140.984 358.891 140.828 359.5 140.609 360H119.891L119.562 356.344C120.375 356.062 121.359 355.797 122.516 355.547C123.672 355.297 124.781 355.078 125.844 354.891V329.672C125.844 327.891 125.719 326.406 125.469 325.219C125.25 324.031 124.859 323.094 124.297 322.406C123.766 321.688 123.047 321.188 122.141 320.906C121.234 320.594 120.109 320.438 118.766 320.438C116.328 320.438 113.953 320.672 111.641 321.141C109.359 321.578 107.047 322.344 104.703 323.438V354.797L112.156 356.344C112.25 356.906 112.25 357.531 112.156 358.219C112.062 358.906 111.891 359.5 111.641 360H89.9844L89.5156 356.344ZM148.047 337.734C148.047 334.453 148.5 331.391 149.406 328.547C150.344 325.672 151.766 323.172 153.672 321.047C155.609 318.891 158.031 317.203 160.938 315.984C163.875 314.734 167.359 314.109 171.391 314.109C175.422 314.109 178.719 314.734 181.281 315.984C183.844 317.203 185.859 318.891 187.328 321.047C188.828 323.172 189.859 325.672 190.422 328.547C190.984 331.391 191.266 334.453 191.266 337.734C191.266 341.016 190.797 344.094 189.859 346.969C188.922 349.812 187.484 352.312 185.547 354.469C183.641 356.594 181.219 358.281 178.281 359.531C175.344 360.75 171.875 361.359 167.875 361.359C163.844 361.359 160.547 360.75 157.984 359.531C155.422 358.281 153.406 356.594 151.938 354.469C150.469 352.312 149.453 349.812 148.891 346.969C148.328 344.094 148.047 341.016 148.047 337.734ZM156.672 337.734C156.672 341.547 156.969 344.656 157.562 347.062C158.156 349.469 159 351.359 160.094 352.734C161.219 354.109 162.578 355.062 164.172 355.594C165.766 356.094 167.578 356.344 169.609 356.344C171.422 356.344 173.109 356.094 174.672 355.594C176.266 355.062 177.641 354.109 178.797 352.734C179.984 351.359 180.906 349.469 181.562 347.062C182.25 344.656 182.594 341.547 182.594 337.734C182.594 333.953 182.297 330.859 181.703 328.453C181.109 326.016 180.25 324.109 179.125 322.734C178.031 321.359 176.672 320.422 175.047 319.922C173.453 319.391 171.641 319.125 169.609 319.125C167.828 319.125 166.141 319.391 164.547 319.922C162.984 320.422 161.609 321.359 160.422 322.734C159.266 324.109 158.344 326.016 157.656 328.453C157 330.859 156.672 333.953 156.672 337.734ZM210.984 303.469C210.234 303.469 209.516 303.391 208.828 303.234C208.172 303.047 207.594 302.75 207.094 302.344C206.594 301.906 206.203 301.344 205.922 300.656C205.641 299.969 205.5 299.109 205.5 298.078C205.5 297.047 205.641 296.188 205.922 295.5C206.203 294.812 206.594 294.266 207.094 293.859C207.594 293.422 208.172 293.125 208.828 292.969C209.516 292.781 210.234 292.688 210.984 292.688C211.734 292.688 212.422 292.781 213.047 292.969C213.703 293.125 214.281 293.422 214.781 293.859C215.281 294.266 215.672 294.812 215.953 295.5C216.234 296.188 216.375 297.047 216.375 298.078C216.375 299.109 216.234 299.969 215.953 300.656C215.672 301.344 215.281 301.906 214.781 302.344C214.281 302.75 213.703 303.047 213.047 303.234C212.422 303.391 211.734 303.469 210.984 303.469ZM200.203 356.344C201.391 355.938 202.672 355.641 204.047 355.453C205.453 355.234 206.75 355.016 207.938 354.797V320.578H199.969L199.453 316.547C200.047 316.328 200.812 316.078 201.75 315.797C202.719 315.484 203.719 315.219 204.75 315C205.781 314.75 206.797 314.547 207.797 314.391C208.797 314.203 209.656 314.109 210.375 314.109C211.719 314.109 212.75 314.281 213.469 314.625C214.219 314.969 214.75 315.391 215.062 315.891C215.406 316.391 215.609 316.938 215.672 317.531C215.734 318.125 215.781 318.656 215.812 319.125V354.797L223.875 356.203C223.938 356.828 223.938 357.484 223.875 358.172C223.812 358.859 223.672 359.469 223.453 360H200.625L200.203 356.344ZM230.703 338.203C230.703 334.516 231.125 331.188 231.969 328.219C232.844 325.25 234.125 322.719 235.812 320.625C237.531 318.531 239.672 316.922 242.234 315.797C244.797 314.672 247.781 314.109 251.188 314.109C252.219 314.109 253.344 314.156 254.562 314.25C255.812 314.312 257.078 314.438 258.359 314.625C259.672 314.812 260.984 315.078 262.297 315.422C263.609 315.734 264.875 316.156 266.094 316.688C266.188 317.594 266.172 318.641 266.047 319.828C265.953 321.016 265.797 322.219 265.578 323.438C265.391 324.656 265.188 325.812 264.969 326.906C264.75 327.969 264.562 328.812 264.406 329.438C263.5 329.438 262.734 329.438 262.109 329.438C261.484 329.406 260.734 329.328 259.859 329.203L259.016 321C258.141 320.594 257.219 320.266 256.25 320.016C255.281 319.766 254.359 319.594 253.484 319.5C252.609 319.375 251.828 319.297 251.141 319.266C250.453 319.234 249.953 319.219 249.641 319.219C247.953 319.219 246.438 319.531 245.094 320.156C243.781 320.75 242.672 321.766 241.766 323.203C240.859 324.609 240.172 326.484 239.703 328.828C239.234 331.141 239 334 239 337.406C239 340.75 239.234 343.547 239.703 345.797C240.203 348.047 241 349.859 242.094 351.234C243.188 352.578 244.641 353.547 246.453 354.141C248.266 354.734 250.516 355.031 253.203 355.031C254.609 355.031 256 354.875 257.375 354.562C258.781 354.219 260.047 353.859 261.172 353.484C262.297 353.078 263.219 352.703 263.938 352.359C264.656 352.016 265.062 351.828 265.156 351.797L267.125 356.016C266.875 356.203 266.297 356.594 265.391 357.188C264.484 357.75 263.312 358.344 261.875 358.969C260.469 359.594 258.812 360.141 256.906 360.609C255.031 361.109 252.984 361.359 250.766 361.359C249.047 361.359 247.344 361.25 245.656 361.031C244 360.812 242.422 360.406 240.922 359.812C239.453 359.219 238.094 358.391 236.844 357.328C235.594 356.266 234.516 354.875 233.609 353.156C232.703 351.438 231.984 349.359 231.453 346.922C230.953 344.453 230.703 341.547 230.703 338.203ZM274.328 339.844C274.297 335.281 274.75 331.375 275.688 328.125C276.656 324.875 278.016 322.219 279.766 320.156C281.516 318.062 283.641 316.531 286.141 315.562C288.672 314.594 291.5 314.109 294.625 314.109C298.031 314.109 300.828 314.516 303.016 315.328C305.203 316.109 306.922 317.359 308.172 319.078C309.422 320.766 310.281 322.938 310.75 325.594C311.25 328.25 311.484 331.438 311.453 335.156L282.391 335.391C282.391 337.609 282.422 339.641 282.484 341.484C282.578 343.328 282.781 345 283.094 346.5C283.438 347.969 283.922 349.266 284.547 350.391C285.172 351.484 286.031 352.406 287.125 353.156C288.25 353.875 289.625 354.422 291.25 354.797C292.906 355.172 294.906 355.359 297.25 355.359C298.438 355.359 299.719 355.25 301.094 355.031C302.5 354.812 303.812 354.562 305.031 354.281C306.281 354 307.344 353.734 308.219 353.484C309.125 353.203 309.703 353.016 309.953 352.922L311.547 356.906C311.328 357.062 310.766 357.391 309.859 357.891C308.953 358.359 307.766 358.859 306.297 359.391C304.859 359.891 303.156 360.344 301.188 360.75C299.219 361.156 297.062 361.359 294.719 361.359C291.812 361.359 289.109 361.094 286.609 360.562C284.141 360.062 282 359.047 280.188 357.516C278.375 355.984 276.953 353.812 275.922 351C274.891 348.188 274.359 344.469 274.328 339.844ZM303.391 330.094C303.328 327.438 302.984 325.359 302.359 323.859C301.766 322.359 301.016 321.25 300.109 320.531C299.234 319.781 298.281 319.328 297.25 319.172C296.219 318.984 295.234 318.891 294.297 318.891C292.266 318.891 290.547 319.125 289.141 319.594C287.766 320.031 286.625 320.734 285.719 321.703C284.812 322.672 284.125 323.922 283.656 325.453C283.188 326.953 282.859 328.75 282.672 330.844L303.391 330.094ZM320.297 356.344C321.484 355.938 322.734 355.641 324.047 355.453C325.391 355.234 326.656 355.016 327.844 354.797V320.578H319.453L318.844 316.547C319.531 316.266 320.375 315.984 321.375 315.703C322.375 315.422 323.391 315.172 324.422 314.953C325.484 314.703 326.5 314.5 327.469 314.344C328.469 314.188 329.297 314.109 329.953 314.109C331.266 314.109 332.281 314.281 333 314.625C333.75 314.969 334.297 315.438 334.641 316.031C335.016 316.594 335.234 317.281 335.297 318.094C335.359 318.875 335.391 319.703 335.391 320.578V324.188C335.516 323.906 335.734 323.484 336.047 322.922C336.359 322.359 336.688 321.781 337.031 321.188C337.406 320.562 337.766 319.969 338.109 319.406C338.484 318.844 338.797 318.422 339.047 318.141C340.047 316.859 341.297 315.844 342.797 315.094C344.328 314.312 346.203 313.922 348.422 313.922C348.641 313.922 348.938 313.938 349.312 313.969C349.688 313.969 350.078 313.984 350.484 314.016C350.891 314.047 351.297 314.094 351.703 314.156C352.109 314.188 352.469 314.25 352.781 314.344C352.812 314.719 352.828 315.203 352.828 315.797C352.859 316.391 352.859 317.031 352.828 317.719C352.828 318.406 352.797 319.109 352.734 319.828C352.703 320.516 352.641 321.156 352.547 321.75C352.016 321.656 351.359 321.562 350.578 321.469C349.797 321.375 348.906 321.328 347.906 321.328C346.719 321.328 345.547 321.438 344.391 321.656C343.234 321.844 342.188 322.141 341.25 322.547C340.062 323.047 339.047 323.719 338.203 324.562C337.359 325.406 336.531 326.328 335.719 327.328V354.797L346.547 355.875C346.609 356.031 346.641 356.297 346.641 356.672C346.641 357.047 346.641 357.344 346.641 357.562C346.641 358 346.609 358.469 346.547 358.969C346.516 359.438 346.438 359.781 346.312 360H320.719L320.297 356.344ZM357.781 349.547C357.906 346.797 358.578 344.547 359.797 342.797C361.016 341.016 362.641 339.609 364.672 338.578C366.703 337.516 369.094 336.75 371.844 336.281C374.625 335.812 377.656 335.484 380.938 335.297L384.125 335.062V330.188C384.094 328.094 383.922 326.422 383.609 325.172C383.297 323.891 382.766 322.906 382.016 322.219C381.297 321.531 380.312 321.094 379.062 320.906C377.844 320.688 376.328 320.578 374.516 320.578C372.391 320.578 370.344 320.828 368.375 321.328C366.406 321.797 364.438 322.391 362.469 323.109L360.547 318.562C360.953 318.344 361.625 318 362.562 317.531C363.531 317.031 364.703 316.531 366.078 316.031C367.453 315.531 369.016 315.094 370.766 314.719C372.547 314.312 374.469 314.109 376.531 314.109C379.531 314.109 382.016 314.391 383.984 314.953C385.984 315.516 387.562 316.438 388.719 317.719C389.875 319 390.688 320.688 391.156 322.781C391.625 324.875 391.859 327.453 391.859 330.516V355.031H400.625L400.953 358.922C400.578 359.078 399.969 359.297 399.125 359.578C398.281 359.859 397.344 360.125 396.312 360.375C395.281 360.656 394.219 360.891 393.125 361.078C392.031 361.266 391.047 361.359 390.172 361.359C388.859 361.359 387.828 361.172 387.078 360.797C386.359 360.453 385.812 360.031 385.438 359.531C385.094 359 384.875 358.438 384.781 357.844C384.719 357.219 384.688 356.672 384.688 356.203V354H384.594C383.844 354.75 382.922 355.562 381.828 356.438C380.766 357.312 379.578 358.109 378.266 358.828C376.953 359.547 375.531 360.141 374 360.609C372.469 361.109 370.875 361.359 369.219 361.359C367.938 361.359 366.609 361.203 365.234 360.891C363.891 360.609 362.656 360.062 361.531 359.25C360.438 358.438 359.531 357.328 358.812 355.922C358.125 354.516 357.781 352.703 357.781 350.484V349.547ZM365.844 349.453C365.844 350.578 366 351.5 366.312 352.219C366.656 352.938 367.109 353.516 367.672 353.953C368.234 354.391 368.859 354.703 369.547 354.891C370.266 355.047 371 355.125 371.75 355.125C372.531 355.125 373.391 355.047 374.328 354.891C375.266 354.703 376.266 354.422 377.328 354.047C378.391 353.672 379.484 353.172 380.609 352.547C381.766 351.922 382.938 351.156 384.125 350.25V339.188L380.469 339.516C375.469 339.953 371.781 340.969 369.406 342.562C367.031 344.125 365.844 346.422 365.844 349.453Z" fill="white"/>
<path d="M218.064 183.883C202.5 189.5 184.879 152.299 184.006 153.875C180.911 159.466 180.87 167.562 182.473 170.776C183.843 173.52 199.958 194.684 218.064 210.602C219.706 212.045 311.583 106.161 309.979 106.192C308.375 106.223 242.428 178.513 218.064 183.883Z" fill="white"/>
<path d="M277.563 110.302C277.563 110.302 232.193 82.4077 230.374 83.0096C228.556 83.6115 152 124.985 152 128.339C151.999 160.465 152.002 178.476 152 210.602C152 214.157 197.908 239.234 228.733 254.982C230.589 255.931 305.168 218.173 305.466 210.602C306.595 181.889 305.466 145 305.466 145M184.006 153.875C184.879 152.299 202.5 189.5 218.064 183.883C242.428 178.513 308.375 106.223 309.979 106.192C311.583 106.161 219.706 212.045 218.064 210.602C199.958 194.684 183.843 173.52 182.473 170.776C180.87 167.562 180.911 159.466 184.006 153.875Z" stroke="white" stroke-width="11" stroke-linecap="round"/>
</svg>
