<svg width="86" height="20" viewBox="0 0 86 20" fill="none" xmlns="http://www.w3.org/2000/svg">
<path d="M0 13.5265C0 12.5956 0.104746 11.7553 0.314237 11.0058C0.531487 10.2563 0.849603 9.61729 1.26859 9.08869C1.69533 8.56009 2.22681 8.15379 2.86305 7.86976C3.49928 7.58574 4.24026 7.44373 5.08598 7.44373C5.34202 7.44373 5.62135 7.45557 5.92394 7.47923C6.2343 7.49501 6.54854 7.52657 6.86665 7.57391C7.19253 7.62125 7.5184 7.68831 7.84428 7.77509C8.17016 7.85399 8.48439 7.96049 8.78699 8.09461C8.81027 8.32341 8.80639 8.58771 8.77535 8.88751C8.75207 9.18731 8.71328 9.49105 8.65897 9.79874C8.61241 10.1064 8.56198 10.3983 8.50767 10.6745C8.45336 10.9427 8.4068 11.1557 8.36801 11.3135C8.143 11.3135 7.95291 11.3135 7.79773 11.3135C7.64255 11.3056 7.45633 11.2859 7.23908 11.2544L7.02959 9.18336C6.81234 9.0808 6.58345 8.99796 6.34293 8.93485C6.1024 8.87173 5.87351 8.82834 5.65626 8.80467C5.43901 8.77311 5.24504 8.75339 5.07434 8.7455C4.90364 8.73761 4.7795 8.73366 4.70191 8.73366C4.28293 8.73366 3.90662 8.81256 3.57299 8.97035C3.24711 9.12025 2.97167 9.37666 2.74666 9.73957C2.52165 10.0946 2.35096 10.568 2.23457 11.1597C2.11819 11.7435 2.06 12.4654 2.06 13.3253C2.06 14.1695 2.11819 14.8756 2.23457 15.4437C2.35872 16.0117 2.55657 16.4693 2.82813 16.8164C3.09969 17.1557 3.46048 17.4003 3.9105 17.5502C4.36052 17.7001 4.91916 17.775 5.58643 17.775C5.93558 17.775 6.28086 17.7356 6.62225 17.6567C6.9714 17.5699 7.28564 17.4792 7.56496 17.3845C7.84428 17.2819 8.07317 17.1872 8.25162 17.1005C8.43008 17.0137 8.53094 16.9663 8.55422 16.9585L9.04303 18.0235C8.98096 18.0709 8.83742 18.1695 8.61241 18.3194C8.38741 18.4614 8.09644 18.6113 7.73953 18.7691C7.39038 18.9269 6.97916 19.0649 6.50586 19.1833C6.04033 19.3095 5.53212 19.3726 4.98123 19.3726C4.55449 19.3726 4.13163 19.345 3.71265 19.2898C3.30143 19.2346 2.9096 19.132 2.53717 18.9821C2.1725 18.8322 1.83499 18.6231 1.52463 18.3549C1.21427 18.0867 0.94659 17.7356 0.721581 17.3016C0.496572 16.8677 0.318116 16.3431 0.186214 15.7277C0.0620715 15.1044 0 14.3707 0 13.5265Z" fill="white"/>
<path d="M10.6918 18.1064C10.9168 18.0275 11.1845 17.9565 11.4949 17.8934C11.813 17.8302 12.1505 17.7711 12.5074 17.7158V1.63312H10.494L10.3659 0.61538C10.459 0.575933 10.6142 0.524651 10.8315 0.461535C11.0487 0.39053 11.2892 0.323469 11.553 0.260353C11.8169 0.189348 12.0845 0.130177 12.3561 0.0828396C12.6354 0.0276132 12.8876 0 13.1126 0C13.4385 0 13.6906 0.0433922 13.8691 0.130177C14.0475 0.216961 14.1794 0.327414 14.2648 0.461535C14.3579 0.587767 14.4122 0.725833 14.4277 0.875733C14.451 1.02563 14.4626 1.15975 14.4626 1.2781V8.88751C15.1765 8.3668 15.8515 7.996 16.4877 7.77509C17.1317 7.55418 17.7757 7.44373 18.4197 7.44373C19.0327 7.44373 19.5447 7.49896 19.956 7.60941C20.375 7.71986 20.7086 7.9171 20.9569 8.20112C21.2129 8.48514 21.3953 8.87567 21.5039 9.37271C21.6125 9.86186 21.6668 10.4891 21.6668 11.2544V17.7632L23.4824 18.1064C23.5212 18.2326 23.5251 18.3865 23.494 18.5679C23.4708 18.7494 23.432 18.9032 23.3777 19.0294H18.2335L18.152 18.1064C18.3538 18.0354 18.5982 17.9683 18.8852 17.9052C19.1723 17.8421 19.4478 17.7869 19.7116 17.7395V11.3727C19.7116 10.923 19.6805 10.5482 19.6185 10.2484C19.5641 9.94864 19.4672 9.71196 19.3275 9.53839C19.1956 9.35693 19.0171 9.2307 18.7921 9.1597C18.5671 9.0808 18.2878 9.04135 17.9542 9.04135C17.349 9.04135 16.7593 9.10052 16.1851 9.21887C15.6187 9.32932 15.0446 9.52261 14.4626 9.79874V17.7158L16.3132 18.1064C16.3364 18.2484 16.3364 18.4062 16.3132 18.5797C16.2899 18.7533 16.2472 18.9032 16.1851 19.0294H10.8082L10.6918 18.1064Z" fill="white"/>
<path d="M38.8335 4.75736C38.6472 4.75736 38.4688 4.73764 38.2981 4.69819C38.1351 4.65085 37.9916 4.5759 37.8675 4.47334C37.7433 4.36289 37.6463 4.22088 37.5765 4.04731C37.5067 3.87374 37.4718 3.65678 37.4718 3.39642C37.4718 3.13607 37.5067 2.91911 37.5765 2.74554C37.6463 2.57197 37.7433 2.43391 37.8675 2.33134C37.9916 2.22089 38.1351 2.14594 38.2981 2.10649C38.4688 2.05916 38.6472 2.03549 38.8335 2.03549C39.0197 2.03549 39.1904 2.05916 39.3455 2.10649C39.5085 2.14594 39.652 2.22089 39.7762 2.33134C39.9003 2.43391 39.9973 2.57197 40.0671 2.74554C40.137 2.91911 40.1719 3.13607 40.1719 3.39642C40.1719 3.65678 40.137 3.87374 40.0671 4.04731C39.9973 4.22088 39.9003 4.36289 39.7762 4.47334C39.652 4.5759 39.5085 4.65085 39.3455 4.69819C39.1904 4.73764 39.0197 4.75736 38.8335 4.75736ZM36.1566 18.1064C36.4515 18.0038 36.7696 17.9289 37.111 17.8815C37.4601 17.8263 37.7821 17.7711 38.077 17.7158V9.07686H36.0984L35.9704 8.05911C36.1178 8.00389 36.3079 7.94077 36.5407 7.86976C36.7812 7.79087 37.0295 7.72381 37.2855 7.66858C37.5416 7.60547 37.7938 7.55418 38.042 7.51474C38.2903 7.4674 38.5037 7.44373 38.6822 7.44373C39.0158 7.44373 39.2718 7.48712 39.4503 7.57391C39.6365 7.66069 39.7684 7.7672 39.846 7.89343C39.9313 8.01966 39.9818 8.15773 39.9973 8.30763C40.0128 8.45753 40.0244 8.59165 40.0322 8.71V17.7158L42.034 18.0709C42.0495 18.2287 42.0495 18.3943 42.034 18.5679C42.0185 18.7415 41.9836 18.8953 41.9293 19.0294H36.2614L36.1566 18.1064Z" fill="white"/>
<path d="M43.7293 13.5265C43.7293 12.5956 43.8341 11.7553 44.0436 11.0058C44.2608 10.2563 44.5789 9.61729 44.9979 9.08869C45.4247 8.56009 45.9561 8.15379 46.5924 7.86976C47.2286 7.58574 47.9696 7.44373 48.8153 7.44373C49.0714 7.44373 49.3507 7.45557 49.6533 7.47923C49.9636 7.49501 50.2779 7.52657 50.596 7.57391C50.9219 7.62125 51.2477 7.68831 51.5736 7.77509C51.8995 7.85399 52.2137 7.96049 52.5163 8.09461C52.5396 8.32341 52.5357 8.58771 52.5047 8.88751C52.4814 9.18731 52.4426 9.49105 52.3883 9.79874C52.3418 10.1064 52.2913 10.3983 52.237 10.6745C52.1827 10.9427 52.1361 11.1557 52.0973 11.3135C51.8723 11.3135 51.6822 11.3135 51.5271 11.3135C51.3719 11.3056 51.1857 11.2859 50.9684 11.2544L50.7589 9.18336C50.5417 9.0808 50.3128 8.99796 50.0723 8.93485C49.8317 8.87173 49.6028 8.82834 49.3856 8.80467C49.1683 8.77311 48.9744 8.75339 48.8037 8.7455C48.633 8.73761 48.5088 8.73366 48.4312 8.73366C48.0123 8.73366 47.636 8.81256 47.3023 8.97035C46.9764 9.12025 46.701 9.37666 46.476 9.73957C46.251 10.0946 46.0803 10.568 45.9639 11.1597C45.8475 11.7435 45.7893 12.4654 45.7893 13.3253C45.7893 14.1695 45.8475 14.8756 45.9639 15.4437C46.088 16.0117 46.2859 16.4693 46.5575 16.8164C46.829 17.1557 47.1898 17.4003 47.6398 17.5502C48.0899 17.7001 48.6485 17.775 49.3158 17.775C49.6649 17.775 50.0102 17.7356 50.3516 17.6567C50.7007 17.5699 51.015 17.4792 51.2943 17.3845C51.5736 17.2819 51.8025 17.1872 51.981 17.1005C52.1594 17.0137 52.2603 16.9663 52.2836 16.9585L52.7724 18.0235C52.7103 18.0709 52.5668 18.1695 52.3417 18.3194C52.1167 18.4614 51.8258 18.6113 51.4689 18.7691C51.1197 18.9269 50.7085 19.0649 50.2352 19.1833C49.7697 19.3095 49.2615 19.3726 48.7106 19.3726C48.2838 19.3726 47.861 19.345 47.442 19.2898C47.0308 19.2346 46.6389 19.132 46.2665 18.9821C45.9018 18.8322 45.5643 18.6231 45.254 18.3549C44.9436 18.0867 44.6759 17.7356 44.4509 17.3016C44.2259 16.8677 44.0475 16.3431 43.9155 15.7277C43.7914 15.1044 43.7293 14.3707 43.7293 13.5265Z" fill="white"/>
<path d="M54.5608 13.9407C54.553 12.7889 54.6655 11.8027 54.8983 10.9822C55.1388 10.1617 55.4764 9.49105 55.9109 8.97035C56.3454 8.44175 56.873 8.05517 57.4937 7.81059C58.1222 7.56602 58.8243 7.44373 59.6002 7.44373C60.446 7.44373 61.1404 7.54629 61.6835 7.75142C62.2266 7.94866 62.6534 8.26424 62.9637 8.69816C63.2741 9.12419 63.4875 9.67251 63.6038 10.3431C63.728 11.0137 63.7862 11.8185 63.7784 12.7573L56.5626 12.8165C56.5626 13.3766 56.5704 13.8894 56.5859 14.3549C56.6092 14.8204 56.6596 15.2425 56.7372 15.6212C56.8225 15.992 56.9428 16.3194 57.098 16.6034C57.2532 16.8796 57.4665 17.1123 57.7381 17.3016C58.0174 17.4831 58.3588 17.6212 58.7623 17.7158C59.1735 17.8105 59.6701 17.8579 60.252 17.8579C60.5468 17.8579 60.8649 17.8302 61.2063 17.775C61.5555 17.7198 61.8814 17.6567 62.184 17.5857C62.4943 17.5147 62.7581 17.4476 62.9754 17.3845C63.2004 17.3135 63.3439 17.2661 63.406 17.2425L63.8017 18.2484C63.7474 18.2878 63.6077 18.3707 63.3827 18.4969C63.1577 18.6152 62.8629 18.7415 62.4982 18.8756C62.1413 19.0018 61.7184 19.1162 61.2296 19.2188C60.7408 19.3214 60.2054 19.3726 59.6235 19.3726C58.9019 19.3726 58.2308 19.3056 57.6101 19.1715C56.9971 19.0452 56.4656 18.7888 56.0156 18.4022C55.5656 18.0156 55.2126 17.4673 54.9565 16.7573C54.7005 16.0472 54.5686 15.1084 54.5608 13.9407ZM61.7766 11.4792C61.7611 10.8086 61.6757 10.2839 61.5206 9.90525C61.3731 9.52656 61.1869 9.24648 60.9619 9.06502C60.7447 8.87567 60.508 8.76128 60.252 8.72183C59.9959 8.67449 59.7515 8.65082 59.5188 8.65082C59.0144 8.65082 58.5877 8.70999 58.2385 8.82834C57.8971 8.93879 57.6139 9.1163 57.3889 9.36088C57.1639 9.60545 56.9932 9.92103 56.8768 10.3076C56.7605 10.6863 56.679 11.14 56.6324 11.6686L61.7766 11.4792Z" fill="white"/>
<path d="M65.9742 18.1064C66.269 18.0038 66.5794 17.9289 66.9053 17.8815C67.2389 17.8263 67.5531 17.7711 67.848 17.7158V9.07686H65.7647L65.6134 8.05911C65.7841 7.98811 65.9936 7.9171 66.2419 7.8461C66.4902 7.77509 66.7423 7.71197 66.9984 7.65675C67.2622 7.59363 67.5143 7.54235 67.7549 7.5029C68.0032 7.46346 68.2088 7.44373 68.3717 7.44373C68.6976 7.44373 68.9497 7.48712 69.1282 7.57391C69.3144 7.66069 69.4502 7.77904 69.5355 7.92894C69.6287 8.07095 69.683 8.24452 69.6985 8.44964C69.714 8.64688 69.7218 8.85595 69.7218 9.07686V9.98809C69.7528 9.91709 69.8071 9.81058 69.8847 9.66857C69.9623 9.52656 70.0438 9.3806 70.1291 9.2307C70.2222 9.07291 70.3114 8.92301 70.3968 8.781C70.4899 8.63899 70.5675 8.53248 70.6296 8.46148C70.8778 8.13801 71.1882 7.8816 71.5606 7.69225C71.9408 7.49501 72.4063 7.39639 72.9572 7.39639C73.0115 7.39639 73.0853 7.40034 73.1784 7.40823C73.2715 7.40823 73.3685 7.41217 73.4693 7.42006C73.5702 7.42795 73.6711 7.43979 73.7719 7.45557C73.8728 7.46346 73.962 7.47923 74.0396 7.5029C74.0474 7.59758 74.0512 7.71986 74.0512 7.86976C74.059 8.01966 74.059 8.1814 74.0512 8.35497C74.0512 8.52854 74.0435 8.70605 74.028 8.88751C74.0202 9.06108 74.0047 9.22281 73.9814 9.37271C73.8495 9.34904 73.6866 9.32537 73.4926 9.30171C73.2986 9.27804 73.0775 9.2662 72.8292 9.2662C72.5344 9.2662 72.2434 9.29382 71.9563 9.34904C71.6693 9.39638 71.4093 9.47133 71.1766 9.57389C70.8817 9.70013 70.6296 9.86975 70.4201 10.0828C70.2106 10.2958 70.005 10.5285 69.8032 10.781V17.7158L72.4917 17.988C72.5072 18.0275 72.515 18.0945 72.515 18.1892C72.515 18.2839 72.515 18.3588 72.515 18.4141C72.515 18.5245 72.5072 18.6429 72.4917 18.7691C72.4839 18.8874 72.4645 18.9742 72.4335 19.0294H66.0789L65.9742 18.1064Z" fill="white"/>
<path d="M75.281 16.3904C75.3121 15.6961 75.4789 15.1281 75.7815 14.6863C76.0841 14.2366 76.4875 13.8816 76.9919 13.6212C77.4962 13.353 78.0898 13.1597 78.7726 13.0413C79.4631 12.923 80.2157 12.8401 81.0304 12.7928L81.8218 12.7336V11.5029C81.8141 10.9743 81.7714 10.5522 81.6938 10.2366C81.6162 9.91314 81.4843 9.66462 81.2981 9.49105C81.1196 9.31749 80.8752 9.20703 80.5649 9.1597C80.2623 9.10447 79.886 9.07686 79.4359 9.07686C78.9083 9.07686 78.4001 9.13997 77.9113 9.2662C77.4225 9.38455 76.9337 9.53445 76.4449 9.7159L75.9677 8.56798C76.0686 8.51276 76.2354 8.42597 76.4681 8.30763C76.7087 8.1814 76.9996 8.05517 77.341 7.92894C77.6824 7.8027 78.0704 7.69225 78.5049 7.59758C78.9471 7.49501 79.4243 7.44373 79.9364 7.44373C80.6812 7.44373 81.2981 7.51474 81.7869 7.65675C82.2835 7.79876 82.6753 8.0315 82.9624 8.35497C83.2495 8.67844 83.4512 9.10447 83.5676 9.63307C83.684 10.1617 83.7421 10.8125 83.7421 11.5857V17.775H85.9185L86 18.7573C85.9069 18.7967 85.7556 18.8519 85.5461 18.9229C85.3366 18.9939 85.1038 19.061 84.8478 19.1241C84.5918 19.1951 84.3279 19.2543 84.0564 19.3016C83.7848 19.349 83.5404 19.3726 83.3232 19.3726C82.9973 19.3726 82.7412 19.3253 82.555 19.2306C82.3766 19.1438 82.2408 19.0373 82.1477 18.9111C82.0623 18.777 82.008 18.635 81.9847 18.4851C81.9692 18.3273 81.9615 18.1892 81.9615 18.0709V17.5147H81.9382C81.752 17.704 81.5231 17.9091 81.2515 18.13C80.9877 18.3509 80.6929 18.5521 80.367 18.7336C80.0411 18.915 79.6881 19.0649 79.3079 19.1833C78.9277 19.3095 78.532 19.3726 78.1208 19.3726C77.8027 19.3726 77.4729 19.3332 77.1315 19.2543C76.7979 19.1833 76.4914 19.0452 76.2121 18.8401C75.9405 18.635 75.7155 18.3549 75.5371 17.9999C75.3664 17.6448 75.281 17.1872 75.281 16.6271V16.3904ZM77.2828 16.3667C77.2828 16.6508 77.3216 16.8835 77.3992 17.065C77.4846 17.2464 77.5971 17.3924 77.7367 17.5028C77.8764 17.6133 78.0316 17.6922 78.2023 17.7395C78.3807 17.779 78.5631 17.7987 78.7493 17.7987C78.9432 17.7987 79.1566 17.779 79.3894 17.7395C79.6222 17.6922 79.8704 17.6212 80.1342 17.5265C80.3981 17.4318 80.6696 17.3056 80.9489 17.1478C81.236 16.99 81.527 16.7967 81.8218 16.5679V13.775L80.914 13.8579C79.6726 13.9683 78.757 14.2247 78.1674 14.6271C77.5777 15.0216 77.2828 15.6015 77.2828 16.3667Z" fill="white"/>
<path d="M29.4428 7.60524C29.5909 7.57305 29.7099 7.60406 29.7212 7.60653C29.7694 7.61711 29.8102 7.63124 29.8349 7.64047C29.8869 7.65989 29.9401 7.68441 29.9857 7.70663C30.0804 7.7528 30.1987 7.81681 30.3258 7.88794C30.5827 8.03169 30.9098 8.22448 31.2279 8.41552C31.5471 8.60719 31.8621 8.79987 32.097 8.94438C32.2146 9.01671 32.3126 9.07732 32.381 9.11967C32.4151 9.14081 32.442 9.15725 32.4604 9.16865C32.4696 9.17435 32.4767 9.17899 32.4815 9.18197C32.4838 9.18341 32.4858 9.18465 32.487 9.1854C32.4875 9.18573 32.488 9.18608 32.4883 9.18626L32.4887 9.18669L32.5411 9.22278C32.7916 9.41649 32.8619 9.77576 32.694 10.0545C32.5262 10.3332 32.1798 10.4325 31.8963 10.2938L31.8406 10.2629C31.8403 10.2627 31.8394 10.2624 31.8389 10.262C31.8377 10.2613 31.836 10.2604 31.8338 10.259C31.8292 10.2562 31.8221 10.2517 31.8131 10.2462C31.7952 10.235 31.7689 10.2184 31.7354 10.1976C31.6679 10.1558 31.5712 10.096 31.4548 10.0245C31.2219 9.88123 30.9105 9.69118 30.5962 9.50247C30.2809 9.3131 29.967 9.12804 29.7271 8.99379C29.6781 8.96636 29.6335 8.94186 29.5936 8.92033C29.4533 8.99567 29.263 9.09941 29.0384 9.22278C28.567 9.48175 27.9489 9.82581 27.3348 10.1753C26.7195 10.5254 26.1131 10.8779 25.663 11.1548C25.4702 11.2734 25.3133 11.375 25.1982 11.4534C25.1981 13.2687 25.1983 14.4021 25.1982 16.224C25.2524 16.263 25.3202 16.3102 25.4027 16.3644C25.6922 16.555 26.1069 16.8047 26.5921 17.0841C27.4823 17.5967 28.582 18.1929 29.5125 18.6801C29.638 18.6238 29.807 18.5445 30.0081 18.4451C30.4617 18.2211 31.0592 17.91 31.6542 17.5816C32.2514 17.252 32.8348 16.9111 33.2649 16.627C33.4801 16.4847 33.6412 16.3668 33.7436 16.279C33.7722 15.4328 33.773 14.6391 33.7647 14.0432C33.7603 13.7237 33.7537 13.462 33.7482 13.2806C33.7455 13.19 33.7428 13.1194 33.741 13.0718C33.7401 13.048 33.7394 13.0296 33.7389 13.0177C33.7387 13.0118 33.7386 13.0072 33.7385 13.0043V13.0005C33.7235 12.6523 33.9889 12.3577 34.3313 12.3423C34.6737 12.327 34.9635 12.5969 34.9786 12.9451V12.9468C34.9786 12.9477 34.9789 12.949 34.979 12.9506C34.9792 12.9542 34.9792 12.9595 34.9794 12.9661C34.98 12.9793 34.9806 12.9986 34.9815 13.0237C34.9834 13.074 34.9863 13.1477 34.9891 13.2415C34.9949 13.429 35.0015 13.6981 35.006 14.0256C35.0151 14.6798 35.0151 15.5712 34.9786 16.5161C34.969 16.765 34.8328 16.9415 34.7834 17.0033C34.7131 17.0911 34.6284 17.1715 34.5489 17.24C34.3872 17.3793 34.1741 17.5318 33.9413 17.6855C33.4711 17.9963 32.8549 18.3555 32.2466 18.6913C31.6362 19.0282 31.0221 19.3478 30.5506 19.5806C30.3158 19.6966 30.1106 19.7938 29.957 19.8612C29.8819 19.8941 29.8091 19.9246 29.747 19.9467C29.7179 19.957 29.675 19.9712 29.6283 19.9819C29.606 19.987 29.5645 19.9956 29.5138 19.9987C29.4887 20.0002 29.343 20.0113 29.1855 19.9295C28.1973 19.4162 26.9668 18.7503 25.9803 18.1822C25.4885 17.899 25.0488 17.6352 24.7283 17.4243C24.5703 17.3203 24.4272 17.2201 24.3185 17.1313C24.266 17.0885 24.2037 17.0338 24.1491 16.9719C24.122 16.9413 24.0834 16.8938 24.0485 16.8323C24.0186 16.7795 23.9568 16.6575 23.9568 16.4912C23.957 14.4091 23.9568 13.2422 23.9568 11.16C23.9569 11.0148 24.0047 10.9068 24.0303 10.8566C24.0592 10.8004 24.0908 10.7581 24.1115 10.7325C24.1527 10.6814 24.196 10.6409 24.2251 10.6152C24.2865 10.561 24.3611 10.5058 24.4339 10.4545C24.5836 10.349 24.7877 10.2179 25.0203 10.0747C25.4887 9.78657 26.1096 9.42591 26.7285 9.0737C27.3487 8.72081 27.9721 8.37372 28.4482 8.1122C28.6861 7.98151 28.8881 7.87137 29.0351 7.79256C29.1083 7.75329 29.1697 7.72091 29.2155 7.69718C29.238 7.68548 29.2594 7.67475 29.2776 7.66582C29.28 7.66457 29.328 7.64001 29.3777 7.62329L29.4428 7.60524ZM34.7225 9.09862C34.8216 9.11114 34.9483 9.15116 35.0635 9.25715C35.2155 9.39699 35.2562 9.56775 35.2655 9.66573C35.2807 9.82748 35.2282 9.95066 35.2241 9.96131C35.1993 10.025 35.1685 10.0736 35.1624 10.0833C35.14 10.1191 35.1137 10.1554 35.0935 10.1826C35.0489 10.2425 34.9851 10.3236 34.9089 10.4184C34.7545 10.6104 34.5304 10.8813 34.2616 11.2029C33.723 11.8472 32.9957 12.7044 32.2622 13.5577C31.529 14.4108 30.7873 15.2632 30.2215 15.8974C29.9394 16.2137 29.6971 16.48 29.5201 16.666C29.4331 16.7575 29.354 16.8379 29.2907 16.8968C29.2618 16.9235 29.2201 16.9612 29.1745 16.9943C29.1559 17.0077 29.106 17.0434 29.038 17.0725C29.0055 17.0864 28.9329 17.1147 28.8365 17.1219C28.7374 17.1292 28.5473 17.1168 28.378 16.9655C27.7707 16.4226 27.2042 15.7968 26.7805 15.2887C26.5678 15.0336 26.3879 14.8044 26.2541 14.6249C26.1376 14.4688 26.0171 14.3001 25.9642 14.1923C25.8417 13.9427 25.8213 13.6284 25.8366 13.3807C25.8532 13.1127 25.9197 12.7937 26.0745 12.5094L26.1003 12.466C26.1676 12.363 26.2825 12.2522 26.4556 12.2035C26.6355 12.153 26.7844 12.1973 26.8582 12.2276C26.9891 12.2814 27.0697 12.368 27.0834 12.3822C27.1348 12.4355 27.1759 12.4951 27.1954 12.5236C27.2431 12.5932 27.3049 12.6933 27.3644 12.7887C27.4928 12.9943 27.6564 13.2535 27.8436 13.501C28.0357 13.7551 28.2248 13.9583 28.392 14.0763C28.4729 14.1333 28.5282 14.1557 28.558 14.163C28.5698 14.1659 28.5759 14.1656 28.5775 14.1656L28.6151 14.1523L28.6544 14.1433C28.7505 14.1217 28.918 14.0516 29.1614 13.9027C29.3959 13.7592 29.666 13.5642 29.9616 13.3291C30.5527 12.8592 31.2102 12.2569 31.8334 11.6549C32.4548 11.0546 33.0328 10.4639 33.4647 10.0197C33.6789 9.79944 33.8612 9.61137 33.9916 9.4797C34.0562 9.41447 34.1141 9.3567 34.1597 9.31386C34.1813 9.2936 34.2091 9.26861 34.2375 9.24555C34.2505 9.23498 34.2758 9.21465 34.3081 9.194C34.3239 9.18386 34.3532 9.16579 34.3917 9.14846C34.4183 9.13647 34.5098 9.09635 34.6342 9.09389L34.7225 9.09862ZM29.0342 15.3467C29.0079 15.3544 28.9814 15.3608 28.9552 15.3673C28.8284 15.4088 28.7051 15.4271 28.5859 15.4279C28.6498 15.4936 28.7147 15.559 28.7803 15.6238C28.8561 15.5418 28.9414 15.4493 29.0342 15.3467Z" fill="white"/>
</svg>
