<svg width="163" height="171" viewBox="0 0 163 171" fill="none" xmlns="http://www.w3.org/2000/svg">
<path d="M69.0865 99.3221C54.1493 104.565 37.2383 69.8398 36.4007 71.3112C33.4301 76.53 33.3902 84.0877 34.9294 87.0872C36.2437 89.6485 51.7092 109.404 69.0865 124.263C70.6617 125.61 158.838 26.7717 157.299 26.8008C155.76 26.83 92.469 94.3095 69.0865 99.3221Z" fill="white"/>
<path d="M126.188 30.638C126.188 30.638 82.6458 4.59944 80.9007 5.16131C79.1555 5.72318 5.68398 44.3433 5.68386 47.4746C5.68271 77.4624 5.68572 94.2754 5.68386 124.263C5.68366 127.581 49.7426 150.99 79.3255 165.69C81.1067 166.575 152.681 131.331 152.967 124.263C154.051 97.4612 152.967 63.0266 152.967 63.0266M36.4007 71.3113C37.2383 69.8398 54.1493 104.565 69.0865 99.3221C92.469 94.3095 155.76 26.83 157.299 26.8008C158.838 26.7717 70.6617 125.61 69.0865 124.263C51.7092 109.404 36.2437 89.6485 34.9294 87.0872C33.3902 84.0877 33.4301 76.53 36.4007 71.3113Z" stroke="white" stroke-width="10.268" stroke-linecap="round"/>
</svg>
